<svg xmlns="http://www.w3.org/2000/svg" viewBox="0 0 34 11.88"><defs><style>.cls-1{fill:#fff;}</style></defs><title>line</title><g id="圖層_2" data-name="圖層 2"><g id="レイヤー_1" data-name="レイヤー 1"><g id="TYPE_B" data-name="TYPE B"><path class="cls-1" d="M11.73,0H10a.49.49,0,0,0-.49.49V11.39a.49.49,0,0,0,.49.49h1.76a.49.49,0,0,0,.49-.49V.49A.49.49,0,0,0,11.73,0"/><path class="cls-1" d="M23.82,0H22.06a.49.49,0,0,0-.49.49V7l-5-6.75,0,0h0l0,0h0l0,0h0l0,0h-2a.49.49,0,0,0-.49.49V11.39a.49.49,0,0,0,.49.49h1.76a.49.49,0,0,0,.49-.49V4.92l5,6.76a.49.49,0,0,0,.12.12h0l0,0h.12l.12,0h1.76a.49.49,0,0,0,.49-.49V.49A.49.49,0,0,0,23.82,0"/><path class="cls-1" d="M7.5,9.15H2.73V.49A.49.49,0,0,0,2.24,0H.49A.49.49,0,0,0,0,.49v10.9H0a.48.48,0,0,0,.14.34h0a.49.49,0,0,0,.34.14h7A.49.49,0,0,0,8,11.39V9.64a.49.49,0,0,0-.49-.49"/><path class="cls-1" d="M33.51,2.73A.49.49,0,0,0,34,2.24V.49A.49.49,0,0,0,33.51,0h-7a.48.48,0,0,0-.34.14h0A.48.48,0,0,0,26,.49h0v10.9h0a.48.48,0,0,0,.14.34h0a.48.48,0,0,0,.34.14h7a.49.49,0,0,0,.49-.49V9.64a.49.49,0,0,0-.49-.49H28.74V7.31h4.77A.49.49,0,0,0,34,6.82V5.06a.49.49,0,0,0-.49-.49H28.74V2.73Z"/></g></g></g></svg>